<svg xmlns="http://www.w3.org/2000/svg" viewBox="0 0 32 32" width="32" height="32">
  <defs>
    <linearGradient id="shieldGradient" x1="0%" y1="0%" x2="100%" y2="100%">
      <stop offset="0%" style="stop-color:#667eea;stop-opacity:1" />
      <stop offset="100%" style="stop-color:#764ba2;stop-opacity:1" />
    </linearGradient>
    <linearGradient id="globeGradient" x1="0%" y1="0%" x2="100%" y2="100%">
      <stop offset="0%" style="stop-color:#ffffff;stop-opacity:1" />
      <stop offset="100%" style="stop-color:#f8fafc;stop-opacity:1" />
    </linearGradient>
  </defs>
  
  <!-- Shield background -->
  <path d="M16 2L4 8v8c0 8.284 5.373 15.716 12 18 6.627-2.284 12-9.716 12-18V8L16 2z" 
        fill="url(#shieldGradient)" 
        stroke="#4a5568" 
        stroke-width="0.5"/>
  
  <!-- Shield highlight -->
  <path d="M16 2L4 8v8c0 8.284 5.373 15.716 12 18 6.627-2.284 12-9.716 12-18V8L16 2z" 
        fill="none" 
        stroke="#ffffff" 
        stroke-width="0.3" 
        opacity="0.3"/>
  
  <!-- Globe circle -->
  <circle cx="16" cy="16" r="6" 
          fill="url(#globeGradient)" 
          stroke="#4a5568" 
          stroke-width="0.3"/>
  
  <!-- Globe meridians -->
  <path d="M10 16h12" stroke="#667eea" stroke-width="0.4" opacity="0.7"/>
  <path d="M16 10v12" stroke="#667eea" stroke-width="0.4" opacity="0.7"/>
  <path d="M12.5 12.5c2.5-2.5 5-2.5 7.5 0" stroke="#667eea" stroke-width="0.3" opacity="0.6" fill="none"/>
  <path d="M12.5 19.5c2.5 2.5 5 2.5 7.5 0" stroke="#667eea" stroke-width="0.3" opacity="0.6" fill="none"/>
  
  <!-- Security checkmark -->
  <path d="M14 18l2 2 4-4" 
        stroke="#ffffff" 
        stroke-width="1.2" 
        stroke-linecap="round" 
        stroke-linejoin="round" 
        fill="none"/>
  
  <!-- Small dots representing security points -->
  <circle cx="12" cy="8" r="0.8" fill="#ffffff" opacity="0.8"/>
  <circle cx="20" cy="8" r="0.8" fill="#ffffff" opacity="0.8"/>
  <circle cx="12" cy="24" r="0.8" fill="#ffffff" opacity="0.8"/>
  <circle cx="20" cy="24" r="0.8" fill="#ffffff" opacity="0.8"/>
</svg> 